<svg id="图层_1" data-name="图层 1" xmlns="http://www.w3.org/2000/svg" xmlns:xlink="http://www.w3.org/1999/xlink" viewBox="0 0 957 291"><defs><style>.cls-1{fill:url(#未命名的渐变_18);}.cls-2{fill:none;}.cls-3{fill:url(#未命名的渐变_19);}.cls-4{fill:url(#未命名的渐变_20);}.cls-5{fill:#81f5fd;}.cls-6{fill:url(#未命名的渐变_21);}.cls-7{fill:url(#未命名的渐变_22);}.cls-8{fill:url(#未命名的渐变_23);}.cls-9{fill:#0291e6;}.cls-10{isolation:isolate;}</style><linearGradient id="未命名的渐变_18" x1="1853.32" y1="1440.23" x2="1947.17" y2="1474.39" gradientTransform="matrix(0.92, -0.4, 0.4, 0.92, -2053.57, -515.81)" gradientUnits="userSpaceOnUse"><stop offset="0" stop-color="#0cd0fe"/><stop offset="0.27" stop-color="#81f5fd"/><stop offset="0.38" stop-color="#7bf3fd"/><stop offset="0.52" stop-color="#6aedfd"/><stop offset="0.69" stop-color="#4fe3fe"/><stop offset="0.86" stop-color="#28d5fe"/><stop offset="1" stop-color="#06c8ff"/></linearGradient><linearGradient id="未命名的渐变_19" x1="1751.04" y1="-556.18" x2="1821.2" y2="-486.01" gradientTransform="matrix(0.92, -0.4, -0.4, -0.92, -1689.85, 322.7)" gradientUnits="userSpaceOnUse"><stop offset="0" stop-color="#7bf3fd"/><stop offset="0.14" stop-color="#74f1fd"/><stop offset="0.35" stop-color="#61ebfd"/><stop offset="0.6" stop-color="#41e2fd"/><stop offset="0.88" stop-color="#15d4fe"/><stop offset="1" stop-color="#00cefe"/></linearGradient><linearGradient id="未命名的渐变_20" x1="1631.68" y1="-558.25" x2="1812.22" y2="-558.25" gradientTransform="matrix(0.92, -0.4, -0.4, -0.92, -1689.85, 322.7)" gradientUnits="userSpaceOnUse"><stop offset="0" stop-color="#81f5fd"/><stop offset="0.49" stop-color="#81f5fd"/><stop offset="0.56" stop-color="#7af3fd"/><stop offset="0.67" stop-color="#67edfd"/><stop offset="0.79" stop-color="#47e3fd"/><stop offset="0.92" stop-color="#1bd6fe"/><stop offset="1" stop-color="#00cefe"/></linearGradient><linearGradient id="未命名的渐变_21" x1="1639.73" y1="-519.94" x2="1812.22" y2="-519.94" gradientTransform="matrix(0.92, -0.4, -0.4, -0.92, -1689.85, 322.7)" gradientUnits="userSpaceOnUse"><stop offset="0" stop-color="#81f5fd"/><stop offset="0.4" stop-color="#48e4fd"/><stop offset="0.8" stop-color="#14d4fe"/><stop offset="1" stop-color="#00cefe"/></linearGradient><linearGradient id="未命名的渐变_22" x1="1785.42" y1="-501.18" x2="1907.4" y2="-501.18" gradientTransform="matrix(0.92, -0.4, -0.4, -0.92, -1689.85, 322.7)" gradientUnits="userSpaceOnUse"><stop offset="0" stop-color="#0cd1fe"/><stop offset="1" stop-color="#0cd0fe"/></linearGradient><linearGradient id="未命名的渐变_23" x1="1870.85" y1="1414.05" x2="1957.3" y2="1463.96" gradientTransform="matrix(0.92, -0.4, 0.4, 0.92, -2053.57, -515.81)" gradientUnits="userSpaceOnUse"><stop offset="0" stop-color="#0cd0fe"/><stop offset="1" stop-color="#04c8fe"/></linearGradient></defs><title>运宝通logo</title><path class="cls-1" d="M220.14,71.73a33.77,33.77,0,0,0,3.36-.48c11.12-1.8,45.69-5.65,87.57,4.1,4.58.83,7.57,0,9.26-1.56h0c-.05.13-22.24-18.88-63.35-16.41-28.25,1.22-33.26-3.1-33.48-3.11h0c-.06.35-2.33,8.59-2.5,10"/><path class="cls-2" d="M55,227a8.48,8.48,0,0,0-.13-2.54Z"/><path class="cls-2" d="M162.57,39.26Z"/><path class="cls-2" d="M67,224a6.42,6.42,0,0,0,.15,1.34"/><path class="cls-2" d="M135.54,17.34c-3.24.76-6.17,1.49-9,2C129.46,18.79,132.43,18.15,135.54,17.34Z"/><path class="cls-3" d="M113,126.31h0c17.07-18,40.24-34.44,71.32-44.57,2.54-.88,13.39-3.54,6.32,3.1l0,.09a95.85,95.85,0,0,0-28.18-45.76C133,64.94,120.84,80.73,113,126.31Z"/><path class="cls-4" d="M54.88,224.45A11.63,11.63,0,0,1,55,227a127.68,127.68,0,0,0,6.16,32.16,2.71,2.71,0,0,0,2.56,1.92c.09,0,.31,0,.4-.07,1-.21,1.75-1.19,1.73-3.24A256.14,256.14,0,0,1,67,226.66a14.61,14.61,0,0,0,0-2.4c0-.09,0-.22,0-.31-.41-7.93,7.6-57.06,46-97.64h0c7.81-45.58,20-61.36,49.5-87.14l0-.09C90.76,54.29,50.85,153.06,54.88,224.45Z"/><path class="cls-5" d="M61.21,259.24A128.4,128.4,0,0,1,55,227a9.61,9.61,0,0,1-4.18,7.33c-8.38,5.37-22.19,16.44-29.86,34.16-11.46,26.71,8.55,11.22,11.85,7.62a58,58,0,0,1,31-15.07A2.65,2.65,0,0,1,61.21,259.24Z"/><path class="cls-6" d="M162.57,39.26C150.49,28.38,136.77,21.67,125,19.88,96,26,86.34,23.64,84.16,30.32c-1.36,5.35-.41,7.53-3.14,15.21a69.63,69.63,0,0,1-5.76,11.91C26,136.15,45.51,201.35,54.35,222.73a10.94,10.94,0,0,1,.53,1.72C50.85,153.06,90.76,54.29,162.57,39.26Z"/><path class="cls-5" d="M64.13,261c13.31-2,27.36.47,38.4,8.22,15.46,10.71,11-8.65,3.18-15.87-12.47-13.52-36.48-15-38.7-28.11a238.81,238.81,0,0,0-1.24,32.56C65.84,259.94,65,260.83,64.13,261Z"/><path class="cls-7" d="M219.9,73.67c1-9.32,5.63-41.39,24.52-54.45l.18-.08,1.25-.87c.18-.08.42-.29.6-.37.36-.16.69-.41,1.05-.56a14,14,0,0,1,1.78-.88,29.27,29.27,0,0,1,6.25-2.06C216.68-4.34,187.38,3.94,140.17,16.3c-1.58.36-3.11.81-4.69,1.17-3.2.85-6.17,1.49-9,2l-1.58.36c11.81,1.8,25.49,8.63,37.57,19.51h0a95.9,95.9,0,0,1,28.19,45.54c1.92,4.68,1.87,12.28-1.31,16.69-4.56,6.2-6.81,15.72,4.77,12,4.07-1.33,8.35-4.7,12.2-9.29,6.22-7.35,11.36-17.7,12.87-27.44a14.18,14.18,0,0,1,.48-2.37c.1-.26.08-.57.18-.83"/><path class="cls-8" d="M317.9,63.4c-4.57-2.56-23.41-6.07-26.18-14s-7.47-18.72-28.89-31.18c-2.46-1.42-4.83-2.66-7.3-3.86a25,25,0,0,0-10.93,4.74l-.18.08c-11.61,7.41-17.59,22.56-20.93,35,0,0,5.35,4.6,33.48,3.11,41.46-2.19,63.29,16.47,63.29,16.47h0C323.72,70.83,322.22,64.88,317.9,63.4Z"/><path class="cls-9" d="M620.09,263.77V256c7-2.52,11.61-7,11.61-14.12V207.46H620.09v-9.09h23.61v41.41c.39,9.87,5.22,15.09,15.09,15.09h62.3v8.71H658.2c-9.09,0-15.48-2.9-19.35-8.51C634.6,261.25,628.21,262.6,620.09,263.77Zm9.87-74.3c-1.35-7.74-3.87-14.71-6.77-21.86H628a10.74,10.74,0,0,1,10.26,6.77,76.07,76.07,0,0,1,4.64,15.09Zm20.32,16.25v-9.09h69.66v9.09h-35.6A117.63,117.63,0,0,1,667.49,232a324.89,324.89,0,0,0,34.05-1.74,83.22,83.22,0,0,0-4.64-12.38,31.63,31.63,0,0,1-1.35-2.9h3.87a12,12,0,0,1,10.64,7c3.1,6.77,5.61,14.71,8.13,24h-13a59.83,59.83,0,0,0-1.35-6.77c-11.61,2.52-28.44,3.48-50.69,3.1V231.65c7.35-8.51,12.38-17.22,14.71-26.31H650.27Zm5.61-25v-9.87h58v9.87Z"/><path class="cls-9" d="M736.37,209.2v-9.09h87.26v9.09H787.07v15.87h33.67v9.09H787.07v21.09h40.44v8.51H732.12v-8.51h40.05V234.16H739.08v-9.09h33.09V209.2h-35.8Zm-4.26-16.25V174.37h39.67v-8.71h10.64a5.62,5.62,0,0,1,5.61,5.61v2.9h39.47v18.58h-13v-9.09H744.89v9.09H732.31v.19Zm70.43,59.21a35.26,35.26,0,0,0-3.1-13h6.77c3.1,0,6.39,1.74,7.35,4.84,1,2.9,2.13,4.84,2.52,8.13Z"/><path class="cls-9" d="M838.54,263.77V256c6.39-2.9,10.84-7.74,10.64-14.71V207.65H838.54v-9.09H860.4v42.18c.39,9.48,5.22,14.51,15.09,14.71h64v8.71H875.88c-9.48.39-16.25-2.52-19.74-8.51C853,260.48,847.05,261.64,838.54,263.77Zm8.9-74.3a116.69,116.69,0,0,0-7-21.86h4.84a11,11,0,0,1,9.48,6A72.25,72.25,0,0,1,860,189.46ZM915,250v-7.35h3.1c3.48,0,5.22-2.13,4.84-5.61v-3.87H909.55v15.09H897V233.19H882.85v16.45H870.27V200.11a9.34,9.34,0,0,1,9.09-9.09h14.12l-10.64-10.64h7.74a8.12,8.12,0,0,1,4.64,1.35,56.16,56.16,0,0,0,6.39,3.87c5.22-2.9,11.61-4.64,14.51-7H869.69v-8.51h65.4a15.11,15.11,0,0,1-6.77,12.38c-5.61,3.48-10.84,6.77-15.87,8.71h23.61v44.31c.77,10.26-4.26,15.09-14.12,14.51Zm-32.12-51.47v9.09H896.2v-9.09Zm0,16.64v9.48H896.2V215.2Zm39.86-16.64H909.36v9.09h13.35ZM909,215.2v9.48h13.35V215.2Z"/><g class="cls-10"><path class="cls-9" d="M230.84,162.87s-11.78,62-19.83,88.22a21.54,21.54,0,0,1-20.83,15.07c-5.42,0-9.42.15-13.74,0a23.29,23.29,0,0,1-21.21-16.06c-8.42-26.09-20.37-87.4-20.37-87.4h27.25l15.35,81.91c1.41,5.48,10.34,5.74,11.82.26,5.18-23.34,12.8-82,12.8-82Z"/></g><path class="cls-9" d="M372.34,163.13h29.75A28.74,28.74,0,0,1,423,171.77a28.22,28.22,0,0,1,8.64,20.94v44.54a29.51,29.51,0,0,1-29.58,29.25H372.34a28.74,28.74,0,0,1-20.94-8.64,28.22,28.22,0,0,1-8.64-20.94V192.55a28.22,28.22,0,0,1,8.64-20.94C357.55,166,364.36,163.13,372.34,163.13Zm0,29.75v44.54a14.79,14.79,0,1,0,29.58,0V192.88a14.81,14.81,0,0,0-25.26-10.47A14.29,14.29,0,0,0,372.34,192.88Z"/><path class="cls-9" d="M449.45,149.34H479.2V163H494v14.79H479.2v59.33c0,4.65,1.5,8.31,4.65,10.8s6.15,3.49,8.64,3.49H494v14.79H479.2a28.74,28.74,0,0,1-20.94-8.64,28.22,28.22,0,0,1-8.64-20.94V177.26H434.83V162.47h14.79l-.17-13.13Z"/><path class="cls-9" d="M558.3,192.88v44.54a14.79,14.79,0,1,1-29.58,0V192.88a14.75,14.75,0,0,1,14.79-14.79,13.93,13.93,0,0,1,8.31,2.49c-4.65-5.82-12.63-12.63-24.59-17.45A29.55,29.55,0,0,0,499,192.71v44.54a28.74,28.74,0,0,0,8.64,20.94,28.22,28.22,0,0,0,20.94,8.64H558.3a28.74,28.74,0,0,0,20.94-8.64,28,28,0,0,0,8.64-20.61V193a28.74,28.74,0,0,0-8.64-20.94,28.22,28.22,0,0,0-20.94-8.64H545A48.52,48.52,0,0,1,558.3,192"/><path class="cls-9" d="M241.72,238.41v-105h29.75v44.54c.66-5-14.79-14.79,14.79-14.79h14.79A28.74,28.74,0,0,1,322,171.77a28.22,28.22,0,0,1,8.64,20.94v44.54a29.51,29.51,0,0,1-29.58,29.25H270.31A28.27,28.27,0,0,1,241.72,238.41Zm44.54,13.29h0a14.52,14.52,0,0,0,9.8-3.49c3.49-3.16,5.48-7,5.48-11.13V192.55a14.79,14.79,0,1,0-29.58,0v44.2A14,14,0,0,0,286.26,251.71Z"/></svg>